<svg width="79" height="37" viewBox="0 0 79 37" fill="none" xmlns="http://www.w3.org/2000/svg">
<g id="Group 1">
<rect id="Rectangle 1" width="79" height="37" rx="5" fill="#ED4747"/>
<path id="NEW" d="M28.0653 9.54545V27H25.2528L17.0284 15.1108H16.8835V27H13.7216V9.54545H16.5511L24.767 21.4432H24.9205V9.54545H28.0653ZM31.5107 27V9.54545H42.8629V12.196H34.6726V16.9347H42.2749V19.5852H34.6726V24.3494H42.9311V27H31.5107ZM49.7621 27L44.8359 9.54545H48.2365L51.3814 22.3722H51.5433L54.9013 9.54545H57.995L61.3615 22.3807H61.5149L64.6598 9.54545H68.0604L63.1342 27H60.0149L56.5206 14.7528H56.3842L52.8814 27H49.7621Z" fill="white"/>
</g>
</svg>
